<svg width="80" height="92" viewBox="0 0 80 92" fill="none" xmlns="http://www.w3.org/2000/svg">
<mask id="path-1-outside-1_9_4" maskUnits="userSpaceOnUse" x="0" y="17" width="38" height="60" fill="black">
<rect fill="white" y="17" width="38" height="60"/>
<path d="M27.1928 19.4545H35.396V58.1264C35.396 61.6243 34.7035 64.6161 33.3185 67.1019C31.9514 69.5877 30.0249 71.4876 27.5391 72.8015C25.0533 74.0977 22.1413 74.7457 18.8033 74.7457C15.7315 74.7457 12.9705 74.1864 10.5202 73.0678C8.08771 71.9492 6.16122 70.3246 4.74077 68.1939C3.33807 66.0455 2.63672 63.4354 2.63672 60.3636H10.8132C10.8132 61.8729 11.1594 63.1779 11.8519 64.2788C12.5621 65.3796 13.5298 66.2408 14.755 66.8622C15.9979 67.4659 17.4183 67.7678 19.0163 67.7678C20.7564 67.7678 22.2301 67.4038 23.4375 66.6758C24.6626 65.93 25.5948 64.8381 26.234 63.3999C26.8732 61.9616 27.1928 60.2038 27.1928 58.1264V19.4545Z"/>
</mask>
<path d="M27.1928 19.4545H35.396V58.1264C35.396 61.6243 34.7035 64.6161 33.3185 67.1019C31.9514 69.5877 30.0249 71.4876 27.5391 72.8015C25.0533 74.0977 22.1413 74.7457 18.8033 74.7457C15.7315 74.7457 12.9705 74.1864 10.5202 73.0678C8.08771 71.9492 6.16122 70.3246 4.74077 68.1939C3.33807 66.0455 2.63672 63.4354 2.63672 60.3636H10.8132C10.8132 61.8729 11.1594 63.1779 11.8519 64.2788C12.5621 65.3796 13.5298 66.2408 14.755 66.8622C15.9979 67.4659 17.4183 67.7678 19.0163 67.7678C20.7564 67.7678 22.2301 67.4038 23.4375 66.6758C24.6626 65.93 25.5948 64.8381 26.234 63.3999C26.8732 61.9616 27.1928 60.2038 27.1928 58.1264V19.4545Z" fill="#4FBAA2"/>
<path d="M27.1928 19.4545V17.4545H25.1928V19.4545H27.1928ZM35.396 19.4545H37.396V17.4545H35.396V19.4545ZM33.3185 67.1019L31.5714 66.1285L31.5661 66.1381L33.3185 67.1019ZM27.5391 72.8015L28.4638 74.5749L28.4737 74.5697L27.5391 72.8015ZM10.5202 73.0678L9.68465 74.8849L9.68966 74.8872L10.5202 73.0678ZM4.74077 68.1939L3.0661 69.2873L3.07134 69.2953L3.07667 69.3033L4.74077 68.1939ZM2.63672 60.3636V58.3636H0.636719V60.3636H2.63672ZM10.8132 60.3636H12.8132V58.3636H10.8132V60.3636ZM11.8519 64.2788L10.159 65.3437L10.1651 65.3534L10.1713 65.363L11.8519 64.2788ZM14.755 66.8622L13.8502 68.6459L13.8656 68.6537L13.8812 68.6612L14.755 66.8622ZM23.4375 66.6758L24.4702 68.3886L24.4774 68.3842L23.4375 66.6758ZM26.234 63.3999L24.4064 62.5876L26.234 63.3999ZM27.1928 21.4545H35.396V17.4545H27.1928V21.4545ZM33.396 19.4545V58.1264H37.396V19.4545H33.396ZM33.396 58.1264C33.396 61.3609 32.7566 64.0013 31.5714 66.1285L35.0657 68.0753C36.6504 65.2309 37.396 61.8876 37.396 58.1264H33.396ZM31.5661 66.1381C30.3853 68.2849 28.7417 69.9036 26.6044 71.0333L28.4737 74.5697C31.3081 73.0715 33.5174 70.8905 35.071 68.0658L31.5661 66.1381ZM26.6144 71.0281C24.4637 72.1495 21.8805 72.7457 18.8033 72.7457V76.7457C22.4022 76.7457 25.6428 76.0458 28.4638 74.5749L26.6144 71.0281ZM18.8033 72.7457C15.9779 72.7457 13.5061 72.2324 11.3508 71.2485L9.68966 74.8872C12.4349 76.1405 15.4851 76.7457 18.8033 76.7457V72.7457ZM11.3558 71.2507C9.2436 70.2794 7.61039 68.8928 6.40487 67.0845L3.07667 69.3033C4.71206 71.7564 6.93183 73.619 9.68465 74.8849L11.3558 71.2507ZM6.41544 67.1005C5.2638 65.3366 4.63672 63.1247 4.63672 60.3636H0.636719C0.636719 63.7461 1.41233 66.7543 3.0661 69.2873L6.41544 67.1005ZM2.63672 62.3636H10.8132V58.3636H2.63672V62.3636ZM8.81321 60.3636C8.81321 62.188 9.23542 63.8754 10.159 65.3437L13.5448 63.2139C13.0835 62.4804 12.8132 61.5577 12.8132 60.3636H8.81321ZM10.1713 65.363C11.0831 66.7763 12.3251 67.8722 13.8502 68.6459L15.6597 65.0786C14.7346 64.6093 14.0411 63.9829 13.5325 63.1945L10.1713 65.363ZM13.8812 68.6612C15.436 69.4164 17.1629 69.7678 19.0163 69.7678V65.7678C17.6737 65.7678 16.5598 65.5154 15.6288 65.0632L13.8812 68.6612ZM19.0163 69.7678C21.0355 69.7678 22.8857 69.3439 24.4702 68.3885L22.4048 64.963C21.5746 65.4636 20.4773 65.7678 19.0163 65.7678V69.7678ZM24.4774 68.3842C26.084 67.4063 27.274 65.9844 28.0616 64.2121L24.4064 62.5876C23.9156 63.6918 23.2413 64.4538 22.3976 64.9674L24.4774 68.3842ZM28.0616 64.2121C28.8447 62.4504 29.1928 60.3984 29.1928 58.1264H25.1928C25.1928 60.0092 24.9018 61.4729 24.4064 62.5876L28.0616 64.2121ZM29.1928 58.1264V19.4545H25.1928V58.1264H29.1928Z" fill="#33B194" mask="url(#path-1-outside-1_9_4)"/>
<mask id="path-3-outside-2_9_4" maskUnits="userSpaceOnUse" x="40" y="29" width="38" height="47" fill="black">
<rect fill="white" x="40" y="29" width="38" height="47"/>
<path d="M75.0085 42.0785L67.7908 43.3569C67.489 42.4336 67.0096 41.5547 66.3526 40.7202C65.7134 39.8857 64.8434 39.2021 63.7425 38.6694C62.6417 38.1367 61.2656 37.8704 59.6143 37.8704C57.3594 37.8704 55.4773 38.3764 53.968 39.3885C52.4588 40.3828 51.7042 41.6701 51.7042 43.2504C51.7042 44.6175 52.2102 45.7184 53.2223 46.5529C54.2344 47.3874 55.8679 48.071 58.1229 48.6037L64.6215 50.0952C68.3857 50.9652 71.1911 52.3058 73.0376 54.1168C74.8842 55.9279 75.8075 58.2805 75.8075 61.1747C75.8075 63.625 75.0973 65.8089 73.6768 67.7266C72.2741 69.6264 70.3121 71.1179 67.7908 72.201C65.2873 73.2841 62.3842 73.8256 59.0817 73.8256C54.5007 73.8256 50.7631 72.8491 47.869 70.896C44.9748 68.9251 43.1992 66.1286 42.5423 62.5064L50.2393 61.3345C50.7188 63.3409 51.7042 64.859 53.1957 65.8888C54.6871 66.9009 56.6314 67.407 59.0284 67.407C61.6385 67.407 63.7248 66.8654 65.2873 65.7823C66.8498 64.6815 67.631 63.3409 67.631 61.7607C67.631 60.4822 67.1516 59.408 66.1928 58.538C65.2518 57.668 63.8047 57.011 61.8516 56.5671L54.9268 55.049C51.1094 54.179 48.2862 52.794 46.4574 50.8942C44.6463 48.9943 43.7408 46.5884 43.7408 43.6765C43.7408 41.2617 44.4155 39.1488 45.7649 37.3377C47.1143 35.5266 48.9787 34.1151 51.358 33.103C53.7372 32.0732 56.4627 31.5582 59.5344 31.5582C63.9556 31.5582 67.4357 32.517 69.9748 34.4347C72.5139 36.3345 74.1918 38.8825 75.0085 42.0785Z"/>
</mask>
<path d="M75.0085 42.0785L67.7908 43.3569C67.489 42.4336 67.0096 41.5547 66.3526 40.7202C65.7134 39.8857 64.8434 39.2021 63.7425 38.6694C62.6417 38.1367 61.2656 37.8704 59.6143 37.8704C57.3594 37.8704 55.4773 38.3764 53.968 39.3885C52.4588 40.3828 51.7042 41.6701 51.7042 43.2504C51.7042 44.6175 52.2102 45.7184 53.2223 46.5529C54.2344 47.3874 55.8679 48.071 58.1229 48.6037L64.6215 50.0952C68.3857 50.9652 71.1911 52.3058 73.0376 54.1168C74.8842 55.9279 75.8075 58.2805 75.8075 61.1747C75.8075 63.625 75.0973 65.8089 73.6768 67.7266C72.2741 69.6264 70.3121 71.1179 67.7908 72.201C65.2873 73.2841 62.3842 73.8256 59.0817 73.8256C54.5007 73.8256 50.7631 72.8491 47.869 70.896C44.9748 68.9251 43.1992 66.1286 42.5423 62.5064L50.2393 61.3345C50.7188 63.3409 51.7042 64.859 53.1957 65.8888C54.6871 66.9009 56.6314 67.407 59.0284 67.407C61.6385 67.407 63.7248 66.8654 65.2873 65.7823C66.8498 64.6815 67.631 63.3409 67.631 61.7607C67.631 60.4822 67.1516 59.408 66.1928 58.538C65.2518 57.668 63.8047 57.011 61.8516 56.5671L54.9268 55.049C51.1094 54.179 48.2862 52.794 46.4574 50.8942C44.6463 48.9943 43.7408 46.5884 43.7408 43.6765C43.7408 41.2617 44.4155 39.1488 45.7649 37.3377C47.1143 35.5266 48.9787 34.1151 51.358 33.103C53.7372 32.0732 56.4627 31.5582 59.5344 31.5582C63.9556 31.5582 67.4357 32.517 69.9748 34.4347C72.5139 36.3345 74.1918 38.8825 75.0085 42.0785Z" fill="#FACC15"/>
<path d="M75.0085 42.0785L75.3573 44.0478L77.48 43.6719L76.9463 41.5833L75.0085 42.0785ZM67.7908 43.3569L65.8898 43.9784L66.4295 45.6291L68.1397 45.3262L67.7908 43.3569ZM66.3526 40.7202L64.7649 41.9363L64.7729 41.9469L64.7812 41.9573L66.3526 40.7202ZM63.7425 38.6694L64.6137 36.8691L63.7425 38.6694ZM53.968 39.3885L55.0684 41.0586L55.0752 41.0541L55.0819 41.0496L53.968 39.3885ZM58.1229 48.6037L57.6631 50.5502L57.6755 50.553L58.1229 48.6037ZM64.6215 50.0952L65.0718 48.1465L65.0688 48.1458L64.6215 50.0952ZM73.0376 54.1168L71.6372 55.5447L73.0376 54.1168ZM73.6768 67.7266L72.0697 66.5361L72.0679 66.5386L73.6768 67.7266ZM67.7908 72.201L67.0014 70.3634L66.9967 70.3654L67.7908 72.201ZM47.869 70.896L46.7432 72.5491L46.7502 72.5538L47.869 70.896ZM42.5423 62.5064L42.2412 60.5292L40.2072 60.8389L40.5744 62.8633L42.5423 62.5064ZM50.2393 61.3345L52.1846 60.8697L51.7571 59.0804L49.9383 59.3573L50.2393 61.3345ZM53.1957 65.8888L52.0593 67.5346L52.066 67.5392L52.0727 67.5438L53.1957 65.8888ZM65.2873 65.7823L66.4267 67.426L66.433 67.4217L66.4392 67.4173L65.2873 65.7823ZM66.1928 58.538L64.8351 60.0065L64.842 60.0129L64.8488 60.0191L66.1928 58.538ZM61.8516 56.5671L62.2948 54.6169L62.2873 54.6152L62.2799 54.6135L61.8516 56.5671ZM54.9268 55.049L54.4824 56.999L54.4905 57.0008L54.4986 57.0026L54.9268 55.049ZM46.4574 50.8942L45.0097 52.2742L45.0165 52.2812L46.4574 50.8942ZM45.7649 37.3377L44.1611 36.1427L45.7649 37.3377ZM51.358 33.103L52.1408 34.9434L52.1524 34.9384L51.358 33.103ZM69.9748 34.4347L68.7694 36.0306L68.7766 36.036L69.9748 34.4347ZM74.6597 40.1091L67.442 41.3875L68.1397 45.3262L75.3573 44.0478L74.6597 40.1091ZM69.6918 42.7354C69.3106 41.5693 68.7126 40.4847 67.9241 39.4831L64.7812 41.9573C65.3066 42.6247 65.6674 43.2979 65.8898 43.9784L69.6918 42.7354ZM67.9404 39.504C67.0824 38.3839 65.9498 37.5156 64.6137 36.8691L62.8714 40.4697C63.737 40.8885 64.3444 41.3874 64.7649 41.9363L67.9404 39.504ZM64.6137 36.8691C63.1634 36.1673 61.467 35.8704 59.6143 35.8704V39.8704C61.0643 39.8704 62.12 40.1061 62.8714 40.4697L64.6137 36.8691ZM59.6143 35.8704C57.0587 35.8704 54.7645 36.4464 52.8541 37.7274L55.0819 41.0496C56.1901 40.3065 57.66 39.8704 59.6143 39.8704V35.8704ZM52.8677 37.7184C50.8912 39.0206 49.7042 40.8919 49.7042 43.2504H53.7042C53.7042 42.4483 54.0264 41.7451 55.0684 41.0586L52.8677 37.7184ZM49.7042 43.2504C49.7042 45.1857 50.4551 46.8634 51.9499 48.096L54.4947 45.0098C53.9653 44.5734 53.7042 44.0494 53.7042 43.2504H49.7042ZM51.9499 48.096C53.3156 49.222 55.3052 49.9931 57.6631 50.5501L58.5827 46.6573C56.4306 46.1489 55.1532 45.5528 54.4947 45.0098L51.9499 48.096ZM57.6755 50.553L64.1741 52.0445L65.0688 48.1458L58.5703 46.6544L57.6755 50.553ZM64.1711 52.0438C67.7417 52.8691 70.1525 54.0885 71.6372 55.5447L74.4381 52.689C72.2296 50.523 69.0296 49.0613 65.0718 48.1465L64.1711 52.0438ZM71.6372 55.5447C73.053 56.9333 73.8075 58.7476 73.8075 61.1747H77.8075C77.8075 57.8134 76.7155 54.9226 74.4381 52.689L71.6372 55.5447ZM73.8075 61.1747C73.8075 63.2087 73.2278 64.9727 72.0697 66.5361L75.284 68.917C76.9668 66.6452 77.8075 64.0414 77.8075 61.1747H73.8075ZM72.0679 66.5386C70.908 68.1096 69.2502 69.3974 67.0014 70.3634L68.5802 74.0386C71.3741 72.8384 73.6403 71.1432 75.2858 68.9145L72.0679 66.5386ZM66.9967 70.3654C64.7908 71.3197 62.1674 71.8256 59.0817 71.8256V75.8256C62.6011 75.8256 65.7837 75.2485 68.585 74.0366L66.9967 70.3654ZM59.0817 71.8256C54.7766 71.8256 51.4625 70.9082 48.9877 69.2381L46.7502 72.5538C50.0637 74.7899 54.2248 75.8256 59.0817 75.8256V71.8256ZM48.9947 69.2429C46.5683 67.5906 45.0769 65.2744 44.5102 62.1495L40.5744 62.8633C41.3215 66.9827 43.3812 70.2596 46.7432 72.549L48.9947 69.2429ZM42.8433 64.4836L50.5404 63.3117L49.9383 59.3573L42.2412 60.5292L42.8433 64.4836ZM48.2941 61.7993C48.8712 64.2147 50.1054 66.1855 52.0593 67.5346L54.332 64.2431C53.303 63.5325 52.5663 62.4671 52.1846 60.8697L48.2941 61.7993ZM52.0727 67.5438C53.9887 68.844 56.3608 69.407 59.0284 69.407V65.407C56.902 65.407 55.3856 64.9579 54.3187 64.2339L52.0727 67.5438ZM59.0284 69.407C61.8978 69.407 64.4257 68.8131 66.4267 67.426L64.1479 64.1386C63.0239 64.9177 61.3792 65.407 59.0284 65.407V69.407ZM66.4392 67.4173C68.4071 66.0308 69.631 64.132 69.631 61.7607H65.631C65.631 62.5498 65.2925 63.3321 64.1354 64.1474L66.4392 67.4173ZM69.631 61.7607C69.631 59.91 68.9073 58.3005 67.5368 57.0569L64.8488 60.0191C65.396 60.5156 65.631 61.0545 65.631 61.7607H69.631ZM67.5505 57.0695C66.2463 55.8637 64.4145 55.0986 62.2948 54.6169L61.4083 58.5174C63.1948 58.9234 64.2572 59.4723 64.8351 60.0065L67.5505 57.0695ZM62.2799 54.6135L55.3551 53.0954L54.4986 57.0026L61.4233 58.5207L62.2799 54.6135ZM55.3713 53.099C51.7605 52.2761 49.3556 51.021 47.8983 49.5072L45.0165 52.2812C47.2169 54.567 50.4582 56.0819 54.4824 56.999L55.3713 53.099ZM47.905 49.5142C46.4886 48.0283 45.7408 46.1357 45.7408 43.6765H41.7408C41.7408 47.0411 42.804 49.9603 45.0098 52.2742L47.905 49.5142ZM45.7408 43.6765C45.7408 41.6606 46.2948 39.9739 47.3687 38.5327L44.1611 36.1427C42.5362 38.3237 41.7408 40.8628 41.7408 43.6765H45.7408ZM47.3687 38.5327C48.4774 37.0447 50.0395 35.8372 52.1408 34.9434L50.5751 31.2626C47.9178 32.3929 45.7513 34.0085 44.1611 36.1427L47.3687 38.5327ZM52.1524 34.9384C54.2389 34.0353 56.6863 33.5582 59.5344 33.5582V29.5582C56.2392 29.5582 53.2355 30.111 50.5635 31.2675L52.1524 34.9384ZM59.5344 33.5582C63.6865 33.5582 66.69 34.4601 68.7694 36.0306L71.1801 32.8387C68.1815 30.5739 64.2247 29.5582 59.5344 29.5582V33.5582ZM68.7766 36.036C70.9345 37.6507 72.3622 39.8007 73.0708 42.5737L76.9463 41.5833C76.0214 37.9642 74.0932 35.0183 71.173 32.8333L68.7766 36.036Z" fill="#F0C106" mask="url(#path-3-outside-2_9_4)"/>
</svg>
