<svg width="81" height="99" viewBox="0 0 81 99" fill="none" xmlns="http://www.w3.org/2000/svg">
<path d="M29.2346 83.9951L36.8451 88.7982C38.4265 89.7962 40.4326 89.8284 42.0452 88.8816L75.5315 69.2213C77.0607 68.3235 78 66.6828 78 64.9095V26.6165C78 24.8112 77.0269 23.1461 75.454 22.2601L41.946 3.38461C40.3837 2.50453 38.4697 2.52846 36.9299 3.44733L5.43785 22.2396C3.92597 23.1418 3 24.7726 3 26.5332V66.0943C3 67.183 3.34204 68.2516 4.07624 69.0555C6.83468 72.0755 12.3246 76.4367 18.7407 76.6488C26.1481 76.8937 27.3827 69.4045 27.0741 65.6294V29.5101" stroke="#4FBAA2" stroke-width="5"/>
<rect x="23.6923" y="29.3846" width="6.69231" height="3.80769" rx="0.5" fill="#FACC15" stroke="#4FBAA2"/>
<rect x="26.9009" y="86.193" width="6.32143" height="3.46429" rx="0.5" transform="rotate(-58.8389 26.9009 86.193)" fill="#FACC15" stroke="#4FBAA2"/>
<mask id="path-4-outside-1_9_2" maskUnits="userSpaceOnUse" x="33.7692" y="27.8462" width="34" height="41" fill="black">
<rect fill="white" x="33.7692" y="27.8462" width="34" height="41"/>
<path d="M64.9766 39.0475L58.7213 40.1555C58.4597 39.3553 58.0442 38.5935 57.4748 37.8703C56.9209 37.1471 56.1668 36.5546 55.2128 36.093C54.2587 35.6313 53.0661 35.4005 51.635 35.4005C49.6807 35.4005 48.0495 35.839 46.7415 36.7162C45.4335 37.5779 44.7795 38.6936 44.7795 40.0631C44.7795 41.248 45.2181 42.2021 46.0952 42.9253C46.9724 43.6486 48.3881 44.241 50.3424 44.7027L55.9745 45.9953C59.2368 46.7493 61.6681 47.9111 63.2685 49.4807C64.8689 51.0503 65.6691 53.0893 65.6691 55.5976C65.6691 57.7212 65.0536 59.6139 63.8225 61.2758C62.6068 62.9224 60.9064 64.215 58.7213 65.1537C56.5515 66.0924 54.0356 66.5617 51.1733 66.5617C47.2032 66.5617 43.9639 65.7154 41.4557 64.0226C38.9474 62.3145 37.4085 59.8909 36.8392 56.7517L43.51 55.7361C43.9255 57.4749 44.7795 58.7906 46.0721 59.6832C47.3648 60.5603 49.0498 60.9989 51.1272 60.9989C53.3893 60.9989 55.1974 60.5295 56.5515 59.5908C57.9057 58.6368 58.5828 57.4749 58.5828 56.1054C58.5828 54.9974 58.1673 54.0664 57.3363 53.3124C56.5208 52.5584 55.2666 51.989 53.5739 51.6043L47.5725 50.2886C44.264 49.5346 41.8173 48.3343 40.2323 46.6878C38.6627 45.0412 37.8779 42.9561 37.8779 40.4324C37.8779 38.3396 38.4626 36.5084 39.6322 34.9388C40.8017 33.3692 42.4174 32.1459 44.4795 31.2687C46.5415 30.3762 48.9036 29.93 51.5657 29.93C55.3974 29.93 58.4135 30.7609 60.614 32.4229C62.8146 34.0694 64.2688 36.2776 64.9766 39.0475Z"/>
</mask>
<path d="M64.9766 39.0475L58.7213 40.1555C58.4597 39.3553 58.0442 38.5935 57.4748 37.8703C56.9209 37.1471 56.1668 36.5546 55.2128 36.093C54.2587 35.6313 53.0661 35.4005 51.635 35.4005C49.6807 35.4005 48.0495 35.839 46.7415 36.7162C45.4335 37.5779 44.7795 38.6936 44.7795 40.0631C44.7795 41.248 45.2181 42.2021 46.0952 42.9253C46.9724 43.6486 48.3881 44.241 50.3424 44.7027L55.9745 45.9953C59.2368 46.7493 61.6681 47.9111 63.2685 49.4807C64.8689 51.0503 65.6691 53.0893 65.6691 55.5976C65.6691 57.7212 65.0536 59.6139 63.8225 61.2758C62.6068 62.9224 60.9064 64.215 58.7213 65.1537C56.5515 66.0924 54.0356 66.5617 51.1733 66.5617C47.2032 66.5617 43.9639 65.7154 41.4557 64.0226C38.9474 62.3145 37.4085 59.8909 36.8392 56.7517L43.51 55.7361C43.9255 57.4749 44.7795 58.7906 46.0721 59.6832C47.3648 60.5603 49.0498 60.9989 51.1272 60.9989C53.3893 60.9989 55.1974 60.5295 56.5515 59.5908C57.9057 58.6368 58.5828 57.4749 58.5828 56.1054C58.5828 54.9974 58.1673 54.0664 57.3363 53.3124C56.5208 52.5584 55.2666 51.989 53.5739 51.6043L47.5725 50.2886C44.264 49.5346 41.8173 48.3343 40.2323 46.6878C38.6627 45.0412 37.8779 42.9561 37.8779 40.4324C37.8779 38.3396 38.4626 36.5084 39.6322 34.9388C40.8017 33.3692 42.4174 32.1459 44.4795 31.2687C46.5415 30.3762 48.9036 29.93 51.5657 29.93C55.3974 29.93 58.4135 30.7609 60.614 32.4229C62.8146 34.0694 64.2688 36.2776 64.9766 39.0475Z" fill="#FACC15"/>
<path d="M64.9766 39.0475L65.3254 41.0168L67.4481 40.6409L66.9143 38.5523L64.9766 39.0475ZM58.7213 40.1555L56.8203 40.7769L57.36 42.4277L59.0701 42.1248L58.7213 40.1555ZM57.4748 37.8703L55.8871 39.0865L55.8952 39.097L55.9034 39.1074L57.4748 37.8703ZM55.2128 36.093L56.0839 34.2926L56.0839 34.2926L55.2128 36.093ZM46.7415 36.7162L47.8418 38.3863L47.8487 38.3818L47.8554 38.3773L46.7415 36.7162ZM50.3424 44.7027L49.8826 46.6492L49.895 46.652L50.3424 44.7027ZM55.9745 45.9953L56.4249 44.0467L56.4219 44.046L55.9745 45.9953ZM63.2685 49.4807L61.8681 50.9086L61.8681 50.9086L63.2685 49.4807ZM63.8225 61.2758L62.2154 60.0854L62.2135 60.0879L63.8225 61.2758ZM58.7213 65.1537L57.9319 63.3161L57.9272 63.3181L58.7213 65.1537ZM41.4557 64.0226L40.3299 65.6758L40.3369 65.6805L41.4557 64.0226ZM36.8392 56.7517L36.5382 54.7745L34.5041 55.0842L34.8713 57.1086L36.8392 56.7517ZM43.51 55.7361L45.4552 55.2713L45.0277 53.482L43.209 53.7589L43.51 55.7361ZM46.0721 59.6832L44.9358 61.3289L44.9424 61.3336L44.9491 61.3381L46.0721 59.6832ZM56.5515 59.5908L57.6909 61.2345L57.6972 61.2302L57.7034 61.2258L56.5515 59.5908ZM57.3363 53.3124L55.9786 54.781L55.9855 54.7873L55.9924 54.7935L57.3363 53.3124ZM53.5739 51.6043L54.0172 49.6541L54.0097 49.6524L54.0022 49.6507L53.5739 51.6043ZM47.5725 50.2886L47.1281 52.2386L47.1361 52.2405L47.1442 52.2422L47.5725 50.2886ZM40.2323 46.6878L38.7846 48.0678L38.7914 48.0748L40.2323 46.6878ZM39.6322 34.9388L38.0284 33.7439L38.0284 33.7439L39.6322 34.9388ZM44.4795 31.2687L45.2623 33.1092L45.2739 33.1042L44.4795 31.2687ZM60.614 32.4229L59.4087 34.0188L59.4158 34.0242L60.614 32.4229ZM64.6278 37.0782L58.3725 38.1861L59.0701 42.1248L65.3254 41.0168L64.6278 37.0782ZM60.6223 39.534C60.2813 38.4909 59.7472 37.5235 59.0463 36.6332L55.9034 39.1074C56.3412 39.6636 56.6381 40.2196 56.8203 40.7769L60.6223 39.534ZM59.0626 36.6541C58.2899 35.6453 57.2732 34.8681 56.0839 34.2926L54.3416 37.8933C55.0604 38.2411 55.5518 38.6488 55.8871 39.0865L59.0626 36.6541ZM56.0839 34.2926C54.7804 33.6619 53.2675 33.4005 51.635 33.4005V37.4005C52.8647 37.4005 53.737 37.6007 54.3416 37.8933L56.0839 34.2926ZM51.635 33.4005C49.38 33.4005 47.3367 33.909 45.6276 35.0551L47.8554 38.3773C48.7623 37.7691 49.9814 37.4005 51.635 37.4005V33.4005ZM45.6412 35.0461C43.8659 36.2157 42.7795 37.9154 42.7795 40.0631H46.7795C46.7795 39.4718 47.0011 38.9402 47.8418 38.3863L45.6412 35.0461ZM42.7795 40.0631C42.7795 41.8162 43.463 43.3471 44.8229 44.4684L47.3676 41.3823C46.9732 41.0571 46.7795 40.6799 46.7795 40.0631H42.7795ZM44.8229 44.4684C46.0536 45.4832 47.8254 46.1632 49.8826 46.6491L50.8022 42.7563C48.9508 42.3189 47.8912 41.814 47.3676 41.3823L44.8229 44.4684ZM49.895 46.652L55.5271 47.9446L56.4219 44.046L50.7898 42.7534L49.895 46.652ZM55.5241 47.9439C58.5928 48.6532 60.6296 49.6939 61.8681 50.9086L64.6689 48.0529C62.7067 46.1284 59.8808 44.8454 56.4249 44.0467L55.5241 47.9439ZM61.8681 50.9086C63.0377 52.0557 63.6691 53.5564 63.6691 55.5976H67.6691C67.6691 52.6222 66.7001 50.045 64.6689 48.0529L61.8681 50.9086ZM63.6691 55.5976C63.6691 57.3048 63.184 58.7777 62.2154 60.0854L65.4296 62.4663C66.9231 60.4501 67.6691 58.1375 67.6691 55.5976H63.6691ZM62.2135 60.0879C61.2406 61.4056 59.8445 62.4945 57.9319 63.3161L59.5107 66.9913C61.9684 65.9355 63.973 64.4392 65.4315 62.4638L62.2135 60.0879ZM57.9272 63.3181C56.0551 64.128 53.8187 64.5617 51.1733 64.5617V68.5617C54.2524 68.5617 57.048 68.0567 59.5154 66.9893L57.9272 63.3181ZM51.1733 64.5617C47.4791 64.5617 44.6633 63.7745 42.5744 62.3648L40.3369 65.6805C43.2646 67.6562 46.9272 68.5617 51.1733 68.5617V64.5617ZM42.5814 62.3695C40.5409 60.98 39.2863 59.0367 38.8071 56.3948L34.8713 57.1086C35.5308 60.7451 37.3538 63.6491 40.3299 65.6757L42.5814 62.3695ZM37.1402 58.7289L43.811 57.7133L43.209 53.7589L36.5382 54.7745L37.1402 58.7289ZM41.5648 56.2009C42.078 58.3487 43.1808 60.1172 44.9358 61.3289L47.2085 58.0374C46.3783 57.4641 45.773 56.6012 45.4552 55.2713L41.5648 56.2009ZM44.9491 61.3381C46.6663 62.5033 48.7792 62.9989 51.1272 62.9989V58.9989C49.3204 58.9989 48.0632 58.6172 47.1951 58.0282L44.9491 61.3381ZM51.1272 62.9989C53.6486 62.9989 55.8982 62.4772 57.6909 61.2345L55.4122 57.9471C54.4965 58.5818 53.1299 58.9989 51.1272 58.9989V62.9989ZM57.7034 61.2258C59.463 59.9861 60.5828 58.266 60.5828 56.1054H56.5828C56.5828 56.6839 56.3484 57.2874 55.3996 57.9559L57.7034 61.2258ZM60.5828 56.1054C60.5828 54.4251 59.923 52.9589 58.6803 51.8313L55.9924 54.7935C56.4116 55.174 56.5828 55.5697 56.5828 56.1054H60.5828ZM58.6941 51.8439C57.5153 50.7541 55.8765 50.0766 54.0172 49.6541L53.1307 53.5546C54.6568 53.9014 55.5262 54.3627 55.9786 54.781L58.6941 51.8439ZM54.0022 49.6507L48.0008 48.335L47.1442 52.2422L53.1456 53.5579L54.0022 49.6507ZM48.0169 48.3386C44.9152 47.6317 42.8866 46.5613 41.6732 45.3007L38.7914 48.0748C40.7479 50.1073 43.6129 51.4375 47.1281 52.2386L48.0169 48.3386ZM41.6799 45.3078C40.505 44.0752 39.8779 42.5034 39.8779 40.4324H35.8779C35.8779 43.4088 36.8204 46.0072 38.7847 48.0678L41.6799 45.3078ZM39.8779 40.4324C39.8779 38.7386 40.342 37.3336 41.2359 36.1338L38.0284 33.7439C36.5833 35.6833 35.8779 37.9407 35.8779 40.4324H39.8779ZM41.2359 36.1338C42.1647 34.8873 43.4783 33.868 45.2623 33.1092L43.6966 29.4283C41.3566 30.4237 39.4387 31.8511 38.0284 33.7439L41.2359 36.1338ZM45.2739 33.1042C47.0432 32.3384 49.1271 31.93 51.5657 31.93V27.93C48.68 27.93 46.0398 28.4141 43.685 29.4333L45.2739 33.1042ZM51.5657 31.93C55.1283 31.93 57.6678 32.704 59.4087 34.0188L61.8194 30.8269C59.1592 28.8178 55.6665 27.93 51.5657 27.93V31.93ZM59.4158 34.0242C61.2352 35.3856 62.4391 37.1959 63.0389 39.5427L66.9143 38.5523C66.0984 35.3593 64.3939 32.7532 61.8123 30.8215L59.4158 34.0242Z" fill="#F0C106" mask="url(#path-4-outside-1_9_2)"/>
</svg>
