<svg width="88" height="91" viewBox="0 0 88 91" fill="none" xmlns="http://www.w3.org/2000/svg">
<path d="M86 45.2359C86 46.5024 85.2644 47.9988 83.2739 49.6315C81.2976 51.2526 78.317 52.8015 74.4572 54.1406C66.7564 56.8123 55.9883 58.5012 44 58.5012C32.0117 58.5012 21.2436 56.8123 13.5428 54.1406C9.68303 52.8015 6.70238 51.2526 4.72613 49.6315C2.73556 47.9988 2 46.5024 2 45.2359C2 43.9695 2.73556 42.4731 4.72613 40.8403C6.70238 39.2193 9.68303 37.6704 13.5428 36.3312C21.2436 33.6596 32.0117 31.9706 44 31.9706C55.9883 31.9706 66.7564 33.6596 74.4572 36.3312C78.317 37.6704 81.2976 39.2193 83.2739 40.8403C85.2644 42.4731 86 43.9695 86 45.2359Z" stroke="#4FBAA2" stroke-width="4"/>
<path d="M66.8882 9.86457C67.9109 10.5293 68.7449 11.9306 69.0079 14.4792C69.2686 17.0054 68.9225 20.3366 67.9237 24.2932C65.9311 32.1861 61.4551 42.1238 54.9205 52.1778C48.3859 62.2318 41.1218 70.3573 34.7179 75.3832C31.5078 77.9025 28.6041 79.5714 26.1896 80.3589C23.7538 81.1533 22.1345 80.9602 21.1119 80.2956C20.0892 79.6309 19.2553 78.2295 18.9922 75.681C18.7315 73.1547 19.0776 69.8235 20.0764 65.867C22.069 57.974 26.545 48.0364 33.0796 37.9823C39.6142 27.9283 46.8783 19.8028 53.2822 14.777C56.4923 12.2576 59.396 10.5888 61.8105 9.80125C64.2463 9.00681 65.8656 9.19989 66.8882 9.86457Z" stroke="#4FBAA2" stroke-width="4"/>
<path d="M19.6598 10.8525C20.6537 10.1456 22.2635 9.88501 24.7304 10.5769C27.1757 11.2628 30.1466 12.8088 33.4593 15.1917C40.0678 19.9454 47.6653 27.76 54.6145 37.532C61.5638 47.3041 66.4513 57.0458 68.7722 64.8486C69.9356 68.7599 70.4207 72.0737 70.2658 74.6087C70.1096 77.166 69.335 78.601 68.341 79.3079C67.347 80.0147 65.7372 80.2753 63.2703 79.5834C60.825 78.8976 57.8541 77.3516 54.5414 74.9687C47.933 70.215 40.3355 62.4003 33.3862 52.6283C26.4369 42.8563 21.5494 33.1145 19.2285 25.3118C18.0651 21.4004 17.58 18.0866 17.7349 15.5517C17.8912 12.9944 18.6658 11.5593 19.6598 10.8525Z" stroke="#4FBAA2" stroke-width="4"/>
<circle cx="44.0003" cy="45.236" r="5.28571" fill="#FACC15" stroke="#F0C106" stroke-width="2"/>
</svg>
