<svg width="82" height="91" viewBox="0 0 82 91" fill="none" xmlns="http://www.w3.org/2000/svg">
<mask id="path-1-outside-1_6_31" maskUnits="userSpaceOnUse" x="42" y="29" width="38" height="47" fill="black">
<rect fill="white" x="42" y="29" width="38" height="47"/>
<path d="M77.0085 42.0785L69.7908 43.3569C69.489 42.4336 69.0096 41.5547 68.3526 40.7202C67.7134 39.8857 66.8434 39.2021 65.7425 38.6694C64.6417 38.1367 63.2656 37.8704 61.6143 37.8704C59.3594 37.8704 57.4773 38.3764 55.968 39.3885C54.4588 40.3828 53.7042 41.6701 53.7042 43.2504C53.7042 44.6175 54.2102 45.7184 55.2223 46.5529C56.2344 47.3874 57.8679 48.071 60.1229 48.6037L66.6215 50.0952C70.3857 50.9652 73.1911 52.3058 75.0376 54.1168C76.8842 55.9279 77.8075 58.2805 77.8075 61.1747C77.8075 63.625 77.0973 65.8089 75.6768 67.7266C74.2741 69.6264 72.3121 71.1179 69.7908 72.201C67.2873 73.2841 64.3842 73.8256 61.0817 73.8256C56.5007 73.8256 52.7631 72.8491 49.869 70.896C46.9748 68.9251 45.1992 66.1286 44.5423 62.5064L52.2393 61.3345C52.7188 63.3409 53.7042 64.859 55.1957 65.8888C56.6871 66.9009 58.6314 67.407 61.0284 67.407C63.6385 67.407 65.7248 66.8654 67.2873 65.7823C68.8498 64.6815 69.631 63.3409 69.631 61.7607C69.631 60.4822 69.1516 59.408 68.1928 58.538C67.2518 57.668 65.8047 57.011 63.8516 56.5671L56.9268 55.049C53.1094 54.179 50.2862 52.794 48.4574 50.8942C46.6463 48.9943 45.7408 46.5884 45.7408 43.6765C45.7408 41.2617 46.4155 39.1488 47.7649 37.3377C49.1143 35.5266 50.9787 34.1151 53.358 33.103C55.7372 32.0732 58.4627 31.5582 61.5344 31.5582C65.9556 31.5582 69.4357 32.517 71.9748 34.4347C74.5139 36.3345 76.1918 38.8825 77.0085 42.0785Z"/>
</mask>
<path d="M77.0085 42.0785L69.7908 43.3569C69.489 42.4336 69.0096 41.5547 68.3526 40.7202C67.7134 39.8857 66.8434 39.2021 65.7425 38.6694C64.6417 38.1367 63.2656 37.8704 61.6143 37.8704C59.3594 37.8704 57.4773 38.3764 55.968 39.3885C54.4588 40.3828 53.7042 41.6701 53.7042 43.2504C53.7042 44.6175 54.2102 45.7184 55.2223 46.5529C56.2344 47.3874 57.8679 48.071 60.1229 48.6037L66.6215 50.0952C70.3857 50.9652 73.1911 52.3058 75.0376 54.1168C76.8842 55.9279 77.8075 58.2805 77.8075 61.1747C77.8075 63.625 77.0973 65.8089 75.6768 67.7266C74.2741 69.6264 72.3121 71.1179 69.7908 72.201C67.2873 73.2841 64.3842 73.8256 61.0817 73.8256C56.5007 73.8256 52.7631 72.8491 49.869 70.896C46.9748 68.9251 45.1992 66.1286 44.5423 62.5064L52.2393 61.3345C52.7188 63.3409 53.7042 64.859 55.1957 65.8888C56.6871 66.9009 58.6314 67.407 61.0284 67.407C63.6385 67.407 65.7248 66.8654 67.2873 65.7823C68.8498 64.6815 69.631 63.3409 69.631 61.7607C69.631 60.4822 69.1516 59.408 68.1928 58.538C67.2518 57.668 65.8047 57.011 63.8516 56.5671L56.9268 55.049C53.1094 54.179 50.2862 52.794 48.4574 50.8942C46.6463 48.9943 45.7408 46.5884 45.7408 43.6765C45.7408 41.2617 46.4155 39.1488 47.7649 37.3377C49.1143 35.5266 50.9787 34.1151 53.358 33.103C55.7372 32.0732 58.4627 31.5582 61.5344 31.5582C65.9556 31.5582 69.4357 32.517 71.9748 34.4347C74.5139 36.3345 76.1918 38.8825 77.0085 42.0785Z" fill="#4FBAA2"/>
<path d="M77.0085 42.0785L77.3573 44.0478L79.48 43.6719L78.9463 41.5833L77.0085 42.0785ZM69.7908 43.3569L67.8898 43.9784L68.4295 45.6291L70.1397 45.3262L69.7908 43.3569ZM68.3526 40.7202L66.7649 41.9363L66.7729 41.9469L66.7812 41.9573L68.3526 40.7202ZM65.7425 38.6694L66.6137 36.8691L65.7425 38.6694ZM55.968 39.3885L57.0684 41.0586L57.0752 41.0541L57.0819 41.0496L55.968 39.3885ZM60.1229 48.6037L59.6631 50.5502L59.6755 50.553L60.1229 48.6037ZM66.6215 50.0952L67.0718 48.1465L67.0688 48.1458L66.6215 50.0952ZM75.0376 54.1168L73.6372 55.5447L75.0376 54.1168ZM75.6768 67.7266L74.0697 66.5361L74.0679 66.5386L75.6768 67.7266ZM69.7908 72.201L69.0014 70.3634L68.9967 70.3654L69.7908 72.201ZM49.869 70.896L48.7432 72.5491L48.7502 72.5538L49.869 70.896ZM44.5423 62.5064L44.2412 60.5292L42.2072 60.8389L42.5744 62.8633L44.5423 62.5064ZM52.2393 61.3345L54.1846 60.8697L53.7571 59.0804L51.9383 59.3573L52.2393 61.3345ZM55.1957 65.8888L54.0593 67.5346L54.066 67.5392L54.0727 67.5438L55.1957 65.8888ZM67.2873 65.7823L68.4267 67.426L68.433 67.4217L68.4392 67.4173L67.2873 65.7823ZM68.1928 58.538L66.8351 60.0065L66.842 60.0129L66.8488 60.0191L68.1928 58.538ZM63.8516 56.5671L64.2948 54.6169L64.2873 54.6152L64.2799 54.6135L63.8516 56.5671ZM56.9268 55.049L56.4824 56.999L56.4905 57.0008L56.4986 57.0026L56.9268 55.049ZM48.4574 50.8942L47.0097 52.2742L47.0165 52.2812L48.4574 50.8942ZM47.7649 37.3377L46.1611 36.1427L47.7649 37.3377ZM53.358 33.103L54.1408 34.9434L54.1524 34.9384L53.358 33.103ZM71.9748 34.4347L70.7694 36.0306L70.7766 36.036L71.9748 34.4347ZM76.6597 40.1091L69.442 41.3875L70.1397 45.3262L77.3573 44.0478L76.6597 40.1091ZM71.6918 42.7354C71.3106 41.5693 70.7126 40.4847 69.9241 39.4831L66.7812 41.9573C67.3066 42.6247 67.6674 43.2979 67.8898 43.9784L71.6918 42.7354ZM69.9404 39.504C69.0824 38.3839 67.9498 37.5156 66.6137 36.8691L64.8714 40.4697C65.737 40.8885 66.3444 41.3874 66.7649 41.9363L69.9404 39.504ZM66.6137 36.8691C65.1634 36.1673 63.467 35.8704 61.6143 35.8704V39.8704C63.0643 39.8704 64.12 40.1061 64.8714 40.4697L66.6137 36.8691ZM61.6143 35.8704C59.0587 35.8704 56.7645 36.4464 54.8541 37.7274L57.0819 41.0496C58.1901 40.3065 59.66 39.8704 61.6143 39.8704V35.8704ZM54.8677 37.7184C52.8912 39.0206 51.7042 40.8919 51.7042 43.2504H55.7042C55.7042 42.4483 56.0264 41.7451 57.0684 41.0586L54.8677 37.7184ZM51.7042 43.2504C51.7042 45.1857 52.4551 46.8634 53.9499 48.096L56.4947 45.0098C55.9653 44.5734 55.7042 44.0494 55.7042 43.2504H51.7042ZM53.9499 48.096C55.3156 49.222 57.3052 49.9931 59.6631 50.5501L60.5827 46.6573C58.4306 46.1489 57.1532 45.5528 56.4947 45.0098L53.9499 48.096ZM59.6755 50.553L66.1741 52.0445L67.0688 48.1458L60.5703 46.6544L59.6755 50.553ZM66.1711 52.0438C69.7417 52.8691 72.1525 54.0885 73.6372 55.5447L76.4381 52.689C74.2296 50.523 71.0296 49.0613 67.0718 48.1465L66.1711 52.0438ZM73.6372 55.5447C75.053 56.9333 75.8075 58.7476 75.8075 61.1747H79.8075C79.8075 57.8134 78.7155 54.9226 76.4381 52.689L73.6372 55.5447ZM75.8075 61.1747C75.8075 63.2087 75.2278 64.9727 74.0697 66.5361L77.284 68.917C78.9668 66.6452 79.8075 64.0414 79.8075 61.1747H75.8075ZM74.0679 66.5386C72.908 68.1096 71.2502 69.3974 69.0014 70.3634L70.5802 74.0386C73.3741 72.8384 75.6403 71.1432 77.2858 68.9145L74.0679 66.5386ZM68.9967 70.3654C66.7908 71.3197 64.1674 71.8256 61.0817 71.8256V75.8256C64.6011 75.8256 67.7837 75.2485 70.585 74.0366L68.9967 70.3654ZM61.0817 71.8256C56.7766 71.8256 53.4625 70.9082 50.9877 69.2381L48.7502 72.5538C52.0637 74.7899 56.2248 75.8256 61.0817 75.8256V71.8256ZM50.9947 69.2429C48.5683 67.5906 47.0769 65.2744 46.5102 62.1495L42.5744 62.8633C43.3215 66.9827 45.3812 70.2596 48.7432 72.549L50.9947 69.2429ZM44.8433 64.4836L52.5404 63.3117L51.9383 59.3573L44.2412 60.5292L44.8433 64.4836ZM50.2941 61.7993C50.8712 64.2147 52.1054 66.1855 54.0593 67.5346L56.332 64.2431C55.303 63.5325 54.5663 62.4671 54.1846 60.8697L50.2941 61.7993ZM54.0727 67.5438C55.9887 68.844 58.3608 69.407 61.0284 69.407V65.407C58.902 65.407 57.3856 64.9579 56.3187 64.2339L54.0727 67.5438ZM61.0284 69.407C63.8978 69.407 66.4257 68.8131 68.4267 67.426L66.1479 64.1386C65.0239 64.9177 63.3792 65.407 61.0284 65.407V69.407ZM68.4392 67.4173C70.4071 66.0308 71.631 64.132 71.631 61.7607H67.631C67.631 62.5498 67.2925 63.3321 66.1354 64.1474L68.4392 67.4173ZM71.631 61.7607C71.631 59.91 70.9073 58.3005 69.5368 57.0569L66.8488 60.0191C67.396 60.5156 67.631 61.0545 67.631 61.7607H71.631ZM69.5505 57.0695C68.2463 55.8637 66.4145 55.0986 64.2948 54.6169L63.4083 58.5174C65.1948 58.9234 66.2572 59.4723 66.8351 60.0065L69.5505 57.0695ZM64.2799 54.6135L57.3551 53.0954L56.4986 57.0026L63.4233 58.5207L64.2799 54.6135ZM57.3713 53.099C53.7605 52.2761 51.3556 51.021 49.8983 49.5072L47.0165 52.2812C49.2169 54.567 52.4582 56.0819 56.4824 56.999L57.3713 53.099ZM49.905 49.5142C48.4886 48.0283 47.7408 46.1357 47.7408 43.6765H43.7408C43.7408 47.0411 44.804 49.9603 47.0098 52.2742L49.905 49.5142ZM47.7408 43.6765C47.7408 41.6606 48.2948 39.9739 49.3687 38.5327L46.1611 36.1427C44.5362 38.3237 43.7408 40.8628 43.7408 43.6765H47.7408ZM49.3687 38.5327C50.4774 37.0447 52.0395 35.8372 54.1408 34.9434L52.5751 31.2626C49.9178 32.3929 47.7513 34.0085 46.1611 36.1427L49.3687 38.5327ZM54.1524 34.9384C56.2389 34.0353 58.6863 33.5582 61.5344 33.5582V29.5582C58.2392 29.5582 55.2355 30.111 52.5635 31.2675L54.1524 34.9384ZM61.5344 33.5582C65.6865 33.5582 68.69 34.4601 70.7694 36.0306L73.1801 32.8387C70.1815 30.5739 66.2247 29.5582 61.5344 29.5582V33.5582ZM70.7766 36.036C72.9345 37.6507 74.3622 39.8007 75.0708 42.5737L78.9463 41.5833C78.0214 37.9642 76.0932 35.0183 73.173 32.8333L70.7766 36.036Z" fill="#33B194" mask="url(#path-1-outside-1_6_31)"/>
<mask id="path-3-outside-2_6_31" maskUnits="userSpaceOnUse" x="1" y="16" width="47" height="59" fill="black">
<rect fill="white" x="1" y="16" width="47" height="59"/>
<path d="M3.30256 25.5391V18.4545H45.5167V25.5391H28.4979V73H20.2947V25.5391H3.30256Z"/>
</mask>
<path d="M3.30256 25.5391V18.4545H45.5167V25.5391H28.4979V73H20.2947V25.5391H3.30256Z" fill="#FACC15"/>
<path d="M3.30256 25.5391H1.30256V27.5391H3.30256V25.5391ZM3.30256 18.4545V16.4545H1.30256V18.4545H3.30256ZM45.5167 18.4545H47.5167V16.4545H45.5167V18.4545ZM45.5167 25.5391V27.5391H47.5167V25.5391H45.5167ZM28.4979 25.5391V23.5391H26.4979V25.5391H28.4979ZM28.4979 73V75H30.4979V73H28.4979ZM20.2947 73H18.2947V75H20.2947V73ZM20.2947 25.5391H22.2947V23.5391H20.2947V25.5391ZM5.30256 25.5391V18.4545H1.30256V25.5391H5.30256ZM3.30256 20.4545H45.5167V16.4545H3.30256V20.4545ZM43.5167 18.4545V25.5391H47.5167V18.4545H43.5167ZM45.5167 23.5391H28.4979V27.5391H45.5167V23.5391ZM26.4979 25.5391V73H30.4979V25.5391H26.4979ZM28.4979 71H20.2947V75H28.4979V71ZM22.2947 73V25.5391H18.2947V73H22.2947ZM20.2947 23.5391H3.30256V27.5391H20.2947V23.5391Z" fill="#F0C106" mask="url(#path-3-outside-2_6_31)"/>
</svg>
